<?xml version="1.0" standalone="no"?>
<!DOCTYPE svg PUBLIC "-//W3C//DTD SVG 20010904//EN"
 "http://www.w3.org/TR/2001/REC-SVG-20010904/DTD/svg10.dtd">
<svg version="1.0" xmlns="http://www.w3.org/2000/svg"
 width="225.000000pt" height="225.000000pt" viewBox="0 0 225.000000 225.000000"
 preserveAspectRatio="xMidYMid meet">

<g transform="translate(0.000000,225.000000) scale(0.100000,-0.100000)"
fill="#000000" stroke="none">
<path d="M1005 1910 c-13 -15 -22 -17 -36 -10 -36 20 -71 11 -105 -25 -18 -19
-44 -39 -58 -45 -14 -5 -34 -27 -46 -50 -11 -22 -25 -40 -30 -40 -26 0 -50
-41 -50 -85 0 -25 -4 -45 -10 -45 -21 0 -42 -63 -37 -109 4 -34 1 -51 -11 -65
-11 -11 -17 -36 -17 -65 0 -28 -8 -57 -19 -74 -14 -21 -17 -39 -14 -78 5 -48
4 -50 -17 -45 -34 9 -116 -5 -122 -20 -3 -8 9 -30 26 -49 17 -20 42 -58 56
-86 28 -55 31 -50 -47 -73 -52 -16 -58 -30 -21 -50 40 -20 119 -102 138 -143
22 -46 16 -84 -16 -102 -22 -12 -32 -12 -56 -2 -38 16 -74 64 -78 105 -4 47
-14 98 -19 104 -3 2 -12 2 -21 -2 -11 -4 -14 -13 -10 -33 5 -23 4 -25 -5 -10
-12 19 -35 23 -45 7 -3 -5 2 -17 12 -27 10 -10 18 -29 18 -43 0 -19 6 -26 25
-28 15 -2 35 -17 50 -38 45 -63 106 -81 153 -44 l25 20 12 -30 c18 -44 103
-118 174 -151 36 -17 96 -34 144 -41 72 -11 82 -15 82 -33 0 -28 -15 -50 -24
-36 -12 18 -46 13 -46 -7 0 -25 19 -42 47 -42 25 0 26 1 43 68 9 34 15 42 33
42 13 0 47 7 77 16 30 9 87 19 125 23 39 5 86 11 105 15 33 7 37 5 67 -38 18
-25 39 -46 46 -46 19 0 47 32 47 53 0 21 -33 22 -50 1 -12 -13 -16 -11 -33 16
-11 17 -18 32 -16 33 2 1 25 12 50 25 94 47 158 119 190 215 17 49 19 52 48
49 43 -5 86 29 107 84 11 29 26 49 41 55 18 7 23 16 22 41 0 18 1 42 3 53 5
28 -26 31 -40 3 -11 -23 -11 -23 -11 5 -1 20 -6 27 -20 27 -18 0 -19 -6 -16
-52 1 -29 6 -61 10 -70 10 -24 -29 -102 -59 -117 -36 -20 -66 -6 -67 32 -3 91
5 112 62 172 39 41 74 109 64 125 -3 4 -27 -1 -55 -13 -27 -11 -52 -19 -54
-16 -3 2 0 25 5 49 13 56 3 127 -22 169 -22 36 -50 52 -57 31 -3 -8 -22 -32
-43 -54 l-38 -41 5 35 c8 51 -12 114 -47 149 -23 23 -28 36 -23 55 8 32 -20
89 -51 106 -18 10 -25 22 -25 42 0 56 -57 128 -101 128 -11 0 -19 7 -19 16 0
8 -13 29 -30 46 -25 25 -37 29 -72 27 -26 -2 -43 1 -46 9 -13 40 -126 56 -157
22z m123 -33 c12 -11 22 -26 22 -34 0 -15 16 -17 25 -3 3 6 21 10 40 10 37 0
75 -37 75 -71 0 -14 7 -19 26 -19 16 0 37 -12 56 -32 26 -28 29 -38 26 -73 -5
-37 -2 -41 26 -55 17 -8 38 -27 46 -43 14 -25 13 -30 -2 -58 l-18 -30 30 -11
c56 -19 90 -127 55 -174 -22 -29 -18 -39 21 -53 46 -17 77 -64 70 -109 -7 -46
-12 -51 -138 -129 -128 -79 -209 -149 -263 -227 -21 -31 -40 -56 -42 -56 -2 0
-28 20 -59 45 -87 72 -216 131 -349 161 -38 9 -86 25 -106 34 -60 31 -76 97
-38 159 l21 35 -21 15 c-45 34 -42 123 6 149 15 9 16 14 6 31 -20 32 -15 59
13 88 22 22 24 29 15 50 -23 50 -11 100 26 114 19 7 23 14 18 27 -24 57 -2
102 50 102 22 0 25 3 19 24 -7 30 25 66 61 66 17 0 25 6 25 17 0 42 82 75 96
38 8 -21 27 -19 42 5 26 43 77 46 120 7z m542 -615 c0 -12 -5 -31 -12 -41 -11
-18 -13 -18 -40 7 l-28 27 32 27 c35 28 48 23 48 -20z m17 -124 c-3 -8 -6 -5
-6 6 -1 11 2 17 5 13 3 -3 4 -12 1 -19z m-1095 -4 c7 -5 -1 -42 -11 -48 -4 -3
-22 11 -41 31 l-35 35 40 -7 c22 -4 43 -9 47 -11z m-42 -84 c0 -5 -2 -10 -4
-10 -3 0 -8 5 -11 10 -3 6 -1 10 4 10 6 0 11 -4 11 -10z m1190 4 c0 -3 -14
-23 -32 -45 -30 -37 -31 -44 -36 -146 -5 -122 -18 -157 -84 -229 -75 -82 -164
-119 -318 -135 -47 -5 -92 -9 -100 -10 -8 -1 -18 -7 -22 -13 -8 -13 -167 -19
-183 -7 -5 4 -20 8 -33 9 -26 1 -112 31 -127 44 -5 4 -16 8 -25 8 -8 0 -26 10
-40 23 -14 12 -19 18 -10 13 8 -4 -4 9 -26 30 -39 37 -64 72 -64 91 0 4 5 1
11 -7 9 -12 10 -12 5 3 -3 10 -6 24 -6 30 0 7 -5 6 -11 -3 -8 -12 -10 -9 -6
13 2 15 0 27 -4 27 -5 0 -11 11 -15 25 -3 14 -11 25 -16 25 -6 0 -7 7 -4 16 3
8 2 12 -4 9 -6 -3 -10 1 -10 10 0 9 -4 14 -8 11 -9 -5 -52 37 -52 50 0 3 55 4
123 1 122 -4 265 -37 252 -57 -3 -4 2 -11 11 -14 8 -3 12 -2 9 4 -8 14 -3 13
33 -6 18 -8 32 -20 32 -25 0 -5 3 -8 8 -7 14 4 52 -13 52 -23 0 -6 4 -7 10 -4
5 3 22 -6 37 -22 16 -15 31 -27 36 -25 4 1 7 -3 7 -9 0 -6 8 -18 18 -27 10
-10 11 -12 2 -7 -13 9 -13 8 -2 -6 20 -27 49 -11 80 45 36 63 123 146 222 213
89 60 180 108 198 105 6 -2 12 2 12 9 0 7 9 9 24 5 14 -3 28 -2 31 4 7 11 25
14 25 4z m-1163 -54 c3 -24 3 -24 -11 -5 -18 24 -20 38 -4 33 6 -2 13 -15 15
-28z m28 -50 c3 -5 1 -10 -4 -10 -6 0 -11 5 -11 10 0 6 2 10 4 10 3 0 8 -4 11
-10z m-37 -17 c-10 -2 -26 -2 -35 0 -10 3 -2 5 17 5 19 0 27 -2 18 -5z"/>
<path d="M1217 1202 c-21 -22 -24 -106 -4 -100 6 3 14 22 17 43 7 51 26 55 47
11 15 -33 43 -49 43 -26 0 21 -30 70 -49 80 -27 14 -35 13 -54 -8z"/>
<path d="M912 1158 c-19 -19 -16 -98 4 -98 9 0 14 8 13 18 -7 70 19 83 53 26
23 -40 49 -33 28 7 -29 56 -70 75 -98 47z"/>
<path d="M1081 1100 c3 -20 10 -25 33 -25 16 0 33 7 40 17 15 24 -3 37 -20 14
-13 -19 -14 -19 -35 0 -21 19 -21 19 -18 -6z"/>
<path d="M1242 1075 c-30 -22 -25 -55 11 -75 24 -13 30 -13 55 0 28 16 38 45
24 67 -14 22 -65 26 -90 8z m28 -22 c0 -22 -17 -50 -25 -42 -5 6 14 59 22 59
1 0 3 -8 3 -17z m50 10 c-1 -11 -26 -43 -33 -43 -4 0 -1 11 5 25 10 23 28 35
28 18z"/>
<path d="M932 1020 c-26 -24 -27 -30 -9 -54 9 -13 23 -17 52 -14 31 2 43 9 55
31 14 26 14 29 -4 43 -28 20 -69 17 -94 -6z m67 -32 c-7 -13 -14 -18 -16 -11
-3 7 1 22 8 35 7 13 14 18 16 11 3 -7 -1 -22 -8 -35z m-39 2 c-6 -12 -14 -19
-17 -17 -2 3 1 15 7 27 6 12 14 19 17 17 2 -3 -1 -15 -7 -27z"/>
<path d="M1603 990 c-13 -5 -23 -11 -23 -14 0 -2 10 -2 23 1 l22 5 -24 -17
c-19 -15 -25 -15 -33 -4 -8 11 -8 10 -4 -5 5 -13 2 -17 -8 -13 -10 4 -13 1 -9
-9 3 -8 1 -20 -3 -27 -5 -7 -2 -6 6 3 21 23 54 34 47 17 -3 -8 -2 -20 3 -27 5
-8 10 2 15 29 4 23 12 41 20 41 7 0 15 7 19 15 6 17 -16 19 -51 5z"/>
<path d="M1500 920 c-14 -11 -30 -20 -36 -20 -5 0 -20 -13 -32 -30 -13 -16
-19 -30 -15 -30 12 1 59 40 48 40 -5 0 -3 5 5 10 10 6 20 4 33 -8 18 -16 18
-15 11 12 -5 21 -4 27 5 22 6 -4 11 -1 11 8 0 20 0 20 -30 -4z"/>
<path d="M1637 875 c3 -38 7 -72 9 -74 7 -8 2 84 -6 114 -5 18 -6 2 -3 -40z"/>
<path d="M1574 856 c12 -10 17 -22 13 -37 -4 -15 -3 -19 4 -12 17 17 6 57 -16
61 -19 3 -19 2 -1 -12z"/>
<path d="M808 853 c6 -2 18 -2 25 0 6 3 1 5 -13 5 -14 0 -19 -2 -12 -5z"/>
<path d="M1455 840 c-36 -24 -55 -25 -55 -5 0 8 -4 15 -10 15 -13 0 -13 -17 0
-25 8 -5 7 -12 -2 -22 -8 -10 7 -6 37 10 61 32 83 47 70 47 -5 0 -23 -9 -40
-20z"/>
<path d="M1547 833 c5 -12 2 -15 -10 -10 -19 7 -47 -1 -47 -13 0 -5 10 -6 23
-2 20 5 21 4 8 -12 -10 -12 -22 -15 -41 -11 -19 4 -39 -1 -61 -14 -38 -23 -28
-28 11 -6 33 19 48 19 52 -1 2 -12 12 -7 41 22 36 36 48 64 27 64 -5 0 -6 -8
-3 -17z"/>
<path d="M770 816 c0 -2 8 -10 18 -17 15 -13 16 -12 3 4 -13 16 -21 21 -21 13z"/>
<path d="M1358 813 c7 -3 16 -2 19 1 4 3 -2 6 -13 5 -11 0 -14 -3 -6 -6z"/>
<path d="M1600 795 c-6 -8 -10 -19 -8 -26 2 -6 9 0 16 15 13 29 10 33 -8 11z"/>
<path d="M710 790 c0 -5 5 -10 11 -10 5 0 7 5 4 10 -3 6 -8 10 -11 10 -2 0 -4
-4 -4 -10z"/>
<path d="M1306 781 c-9 -15 18 -31 34 -20 13 8 13 10 0 19 -19 12 -27 12 -34
1z"/>
<path d="M1614 766 c-4 -18 -11 -25 -20 -22 -8 3 -14 2 -14 -3 0 -5 9 -11 21
-14 14 -4 18 -10 13 -19 -6 -10 -4 -10 9 1 9 7 16 21 16 30 -1 13 -2 13 -6 -2
-2 -9 -9 -15 -13 -12 -5 3 -5 17 1 32 5 14 7 28 5 31 -3 2 -8 -8 -12 -22z"/>
<path d="M1542 755 c-12 -14 -17 -25 -11 -25 6 0 8 -9 4 -22 -7 -23 -7 -23 8
-3 8 11 13 23 10 28 -2 4 1 15 8 23 21 26 3 25 -19 -1z"/>
<path d="M870 760 c8 -5 20 -10 25 -10 6 0 3 5 -5 10 -8 5 -19 10 -25 10 -5 0
-3 -5 5 -10z"/>
<path d="M1278 743 c-8 -10 -13 -24 -10 -32 2 -8 0 -11 -6 -7 -14 8 -24 -9
-29 -47 -3 -34 -23 -53 -35 -34 -5 8 -8 8 -8 1 0 -6 9 -19 20 -29 17 -16 18
-21 6 -49 -13 -31 -13 -31 13 -30 14 1 31 3 38 3 18 1 4 31 -15 31 -8 0 -13 3
-9 6 3 4 14 3 24 -1 25 -10 92 -15 97 -7 2 4 -10 8 -27 9 -18 1 -47 5 -64 8
-32 6 -33 6 -30 60 1 29 6 53 12 52 5 -1 15 14 21 33 9 23 13 28 14 15 1 -19
1 -19 11 -2 16 27 -3 42 -23 20z"/>
<path d="M1450 735 c0 -8 5 -15 10 -15 6 0 10 7 10 15 0 8 -4 15 -10 15 -5 0
-10 -7 -10 -15z"/>
<path d="M940 736 c0 -2 7 -7 16 -10 8 -3 12 -2 9 4 -6 10 -25 14 -25 6z"/>
<path d="M1353 732 c-8 -5 -7 -12 4 -27 15 -19 15 -19 8 4 -6 20 -4 23 9 18
10 -4 15 -3 11 3 -7 12 -16 12 -32 2z"/>
<path d="M1431 704 c0 -11 3 -14 6 -6 3 7 2 16 -1 19 -3 4 -6 -2 -5 -13z"/>
<path d="M810 700 c8 -5 20 -10 25 -10 6 0 3 5 -5 10 -8 5 -19 10 -25 10 -5 0
-3 -5 5 -10z"/>
<path d="M1397 689 c4 -13 0 -19 -11 -19 -9 0 -16 -4 -16 -10 0 -15 19 -12 36
4 18 18 18 32 0 39 -10 4 -12 0 -9 -14z"/>
<path d="M1320 679 c-17 -31 -3 -126 15 -107 3 3 1 18 -5 33 -8 20 -8 37 0 58
12 37 6 47 -10 16z"/>
<path d="M1469 678 c-12 -23 -12 -23 10 -4 23 21 26 26 11 26 -5 0 -15 -10
-21 -22z"/>
<path d="M1277 670 c-3 -11 -1 -20 4 -20 5 0 9 9 9 20 0 11 -2 20 -4 20 -2 0
-6 -9 -9 -20z"/>
<path d="M1562 663 c2 -12 -4 -18 -17 -18 -13 0 -19 -6 -18 -18 0 -12 -4 -16
-13 -13 -7 3 -16 1 -20 -5 -3 -6 -16 -14 -28 -19 -13 -4 -23 -15 -23 -23 0
-12 5 -13 24 -4 13 5 21 12 19 15 -8 7 18 30 29 25 13 -4 58 41 61 62 1 8 -2
15 -7 15 -6 0 -9 -8 -7 -17z m-12 -27 c0 -3 -4 -8 -10 -11 -5 -3 -10 -1 -10 4
0 6 5 11 10 11 6 0 10 -2 10 -4z"/>
<path d="M910 656 c0 -2 7 -7 16 -10 8 -3 12 -2 9 4 -6 10 -25 14 -25 6z"/>
<path d="M1465 650 c-11 -5 -16 -9 -11 -9 5 -1 3 -8 -4 -16 -23 -27 -6 -22 23
7 29 29 27 33 -8 18z"/>
<path d="M1348 643 c-2 -5 -1 -24 3 -43 l6 -35 2 43 c1 39 -3 52 -11 35z"/>
<path d="M1270 604 c0 -21 3 -25 9 -15 7 11 10 10 14 -5 4 -17 5 -17 6 2 0 12
-6 27 -14 34 -13 11 -15 8 -15 -16z"/>
<path d="M970 601 c0 -5 5 -13 10 -16 6 -3 10 -2 10 4 0 5 -4 13 -10 16 -5 3
-10 2 -10 -4z"/>
<path d="M1401 592 c-9 -17 -9 -22 1 -22 8 0 6 -5 -4 -11 -27 -15 -21 -29 7
-16 26 13 28 20 16 52 -8 19 -8 19 -20 -3z"/>
<path d="M850 556 c0 -3 9 -10 20 -16 11 -6 20 -8 20 -6 0 3 -9 10 -20 16 -11
6 -20 8 -20 6z"/>
<path d="M1308 523 c7 -3 16 -2 19 1 4 3 -2 6 -13 5 -11 0 -14 -3 -6 -6z"/>
</g>
</svg>
